# xmcd CD database file
#
# Track frame offsets:
#	150
#	32385
#	58065
#	81362
#	115068
#	138003
#	166351
#
# Disc length: 2544 seconds
#
# Revision: 0
# Processed by: cddbd v1.5.2PL0 Copyright (c) Steve Scherf et al.
# Submitted via: CDex 1.51
#
DISCID=5009ee07
DTITLE=Lee Morgan - Candy
DYEAR=1957
DGENRE=Jazz
TTITLE0=Candy
TTITLE1=Since I Fell For You
TTITLE2=C.T.A.
TTITLE3=All The Way
TTITLE4=Who Do You Love, I Hope
TTITLE5=Personality
TTITLE6=All At Once You Love Her
EXTD=YEAR: 1957
EXTT0=
EXTT1=
EXTT2=
EXTT3=
EXTT4=
EXTT5=
EXTT6=
PLAYORDER=
